<mxfile host="app.diagrams.net" agent="Mozilla/5.0 (Windows NT 10.0; Win64; x64) AppleWebKit/537.36 (KHTML, like Gecko) Chrome/132.0.0.0 Safari/537.36 Edg/132.0.0.0/8mqEzXuL-46" version="26.0.7">
  <diagram name="Page-1" id="XDB04rvkvYiXwnsHpOif">
    <mxGraphModel dx="2227" dy="2280" grid="0" gridSize="10" guides="1" tooltips="1" connect="1" arrows="1" fold="1" page="1" pageScale="1" pageWidth="850" pageHeight="1100" math="0" shadow="0">
      <root>
        <mxCell id="0" />
        <mxCell id="1" parent="0" />
        <mxCell id="8TrVyVLYIBjpl2dbPp21-23" value="" style="group" vertex="1" connectable="0" parent="1">
          <mxGeometry x="112" y="-60" width="655" height="770" as="geometry" />
        </mxCell>
        <mxCell id="8TrVyVLYIBjpl2dbPp21-21" value="" style="rounded=0;whiteSpace=wrap;html=1;container=0;strokeWidth=0;" vertex="1" parent="8TrVyVLYIBjpl2dbPp21-23">
          <mxGeometry width="655" height="770" as="geometry" />
        </mxCell>
        <mxCell id="8TrVyVLYIBjpl2dbPp21-11" style="edgeStyle=orthogonalEdgeStyle;rounded=0;orthogonalLoop=1;jettySize=auto;html=1;exitX=0.5;exitY=1;exitDx=0;exitDy=0;strokeWidth=5;" edge="1" parent="8TrVyVLYIBjpl2dbPp21-23" source="8TrVyVLYIBjpl2dbPp21-1" target="8TrVyVLYIBjpl2dbPp21-7">
          <mxGeometry relative="1" as="geometry" />
        </mxCell>
        <mxCell id="8TrVyVLYIBjpl2dbPp21-1" value="&lt;font&gt;&lt;span&gt;Feature Extraction&lt;/span&gt;&lt;/font&gt;" style="rounded=1;whiteSpace=wrap;html=1;strokeWidth=5;verticalAlign=top;fontSize=15;fontStyle=1;container=0;" vertex="1" parent="8TrVyVLYIBjpl2dbPp21-23">
          <mxGeometry x="55.14285714285711" y="187.29729729729732" width="535.7142857142857" height="83.24324324324326" as="geometry" />
        </mxCell>
        <mxCell id="8TrVyVLYIBjpl2dbPp21-6" style="edgeStyle=orthogonalEdgeStyle;rounded=0;orthogonalLoop=1;jettySize=auto;html=1;exitX=0.5;exitY=1;exitDx=0;exitDy=0;entryX=0.5;entryY=0;entryDx=0;entryDy=0;strokeWidth=5;" edge="1" parent="8TrVyVLYIBjpl2dbPp21-23" source="8TrVyVLYIBjpl2dbPp21-5" target="8TrVyVLYIBjpl2dbPp21-1">
          <mxGeometry relative="1" as="geometry" />
        </mxCell>
        <mxCell id="8TrVyVLYIBjpl2dbPp21-5" value="&lt;b&gt;&lt;font style=&quot;font-size: 14px;&quot;&gt;INPUT&lt;/font&gt;&lt;/b&gt;" style="rounded=1;whiteSpace=wrap;html=1;strokeWidth=5;container=0;" vertex="1" parent="8TrVyVLYIBjpl2dbPp21-23">
          <mxGeometry x="215.85714285714283" y="62.432432432432435" width="214.28571428571425" height="41.62162162162163" as="geometry" />
        </mxCell>
        <mxCell id="8TrVyVLYIBjpl2dbPp21-12" style="edgeStyle=orthogonalEdgeStyle;rounded=0;orthogonalLoop=1;jettySize=auto;html=1;exitX=0.5;exitY=1;exitDx=0;exitDy=0;entryX=0.5;entryY=0;entryDx=0;entryDy=0;strokeWidth=5;" edge="1" parent="8TrVyVLYIBjpl2dbPp21-23" source="8TrVyVLYIBjpl2dbPp21-7" target="8TrVyVLYIBjpl2dbPp21-8">
          <mxGeometry relative="1" as="geometry" />
        </mxCell>
        <mxCell id="8TrVyVLYIBjpl2dbPp21-7" value="Deep Learning Modules" style="rounded=1;whiteSpace=wrap;html=1;strokeWidth=5;verticalAlign=top;fontSize=15;fontStyle=1;container=0;" vertex="1" parent="8TrVyVLYIBjpl2dbPp21-23">
          <mxGeometry x="55.14285714285711" y="353.7837837837838" width="535.7142857142857" height="83.24324324324326" as="geometry" />
        </mxCell>
        <mxCell id="8TrVyVLYIBjpl2dbPp21-13" style="edgeStyle=orthogonalEdgeStyle;rounded=0;orthogonalLoop=1;jettySize=auto;html=1;exitX=0.5;exitY=1;exitDx=0;exitDy=0;entryX=0.5;entryY=0;entryDx=0;entryDy=0;strokeWidth=5;" edge="1" parent="8TrVyVLYIBjpl2dbPp21-23" source="8TrVyVLYIBjpl2dbPp21-8" target="8TrVyVLYIBjpl2dbPp21-9">
          <mxGeometry relative="1" as="geometry" />
        </mxCell>
        <mxCell id="8TrVyVLYIBjpl2dbPp21-8" value="Fusion and Classification" style="rounded=1;whiteSpace=wrap;html=1;strokeWidth=5;verticalAlign=top;fontSize=15;fontStyle=1;container=0;" vertex="1" parent="8TrVyVLYIBjpl2dbPp21-23">
          <mxGeometry x="55.14285714285711" y="520.2702702702703" width="535.7142857142857" height="83.24324324324326" as="geometry" />
        </mxCell>
        <mxCell id="8TrVyVLYIBjpl2dbPp21-9" value="&lt;b&gt;&lt;font style=&quot;font-size: 15px;&quot;&gt;OUTPUT&lt;/font&gt;&lt;/b&gt;" style="rounded=1;whiteSpace=wrap;html=1;strokeWidth=5;container=0;" vertex="1" parent="8TrVyVLYIBjpl2dbPp21-23">
          <mxGeometry x="215.85714285714283" y="686.7567567567568" width="214.28571428571425" height="41.62162162162163" as="geometry" />
        </mxCell>
        <mxCell id="8TrVyVLYIBjpl2dbPp21-15" value="&lt;b&gt;&lt;font style=&quot;font-size: 15px;&quot;&gt;GloVE&lt;/font&gt;&lt;/b&gt;" style="ellipse;whiteSpace=wrap;html=1;strokeWidth=3;container=0;" vertex="1" parent="8TrVyVLYIBjpl2dbPp21-23">
          <mxGeometry x="148.8928571428571" y="218.51351351351354" width="120.53571428571428" height="41.62162162162163" as="geometry" />
        </mxCell>
        <mxCell id="8TrVyVLYIBjpl2dbPp21-16" value="&lt;b&gt;&lt;font style=&quot;font-size: 15px;&quot;&gt;Bert&lt;/font&gt;&lt;/b&gt;" style="ellipse;whiteSpace=wrap;html=1;strokeWidth=3;container=0;" vertex="1" parent="8TrVyVLYIBjpl2dbPp21-23">
          <mxGeometry x="356.4821428571428" y="218.51351351351354" width="120.53571428571428" height="41.62162162162163" as="geometry" />
        </mxCell>
        <mxCell id="8TrVyVLYIBjpl2dbPp21-17" value="&lt;b&gt;&lt;font style=&quot;font-size: 15px;&quot;&gt;Bidirectional LSTM&lt;/font&gt;&lt;/b&gt;" style="ellipse;whiteSpace=wrap;html=1;strokeWidth=3;container=0;" vertex="1" parent="8TrVyVLYIBjpl2dbPp21-23">
          <mxGeometry x="68.53571428571428" y="379.7972972972973" width="133.92857142857142" height="52.027027027027025" as="geometry" />
        </mxCell>
        <mxCell id="8TrVyVLYIBjpl2dbPp21-18" value="&lt;b&gt;&lt;font style=&quot;font-size: 15px;&quot;&gt;Attention Mechanism&lt;/font&gt;&lt;/b&gt;" style="ellipse;whiteSpace=wrap;html=1;strokeWidth=3;container=0;" vertex="1" parent="8TrVyVLYIBjpl2dbPp21-23">
          <mxGeometry x="252.6875" y="379.7972972972973" width="140.625" height="52.027027027027025" as="geometry" />
        </mxCell>
        <mxCell id="8TrVyVLYIBjpl2dbPp21-19" value="&lt;b&gt;&lt;font style=&quot;font-size: 15px;&quot;&gt;CNN&lt;/font&gt;&lt;/b&gt;" style="ellipse;whiteSpace=wrap;html=1;strokeWidth=3;container=0;" vertex="1" parent="8TrVyVLYIBjpl2dbPp21-23">
          <mxGeometry x="456.92857142857133" y="385.00000000000006" width="120.53571428571428" height="41.62162162162163" as="geometry" />
        </mxCell>
        <mxCell id="8TrVyVLYIBjpl2dbPp21-20" value="&lt;b&gt;&lt;font style=&quot;font-size: 15px;&quot;&gt;ReLU&lt;/font&gt;&lt;/b&gt;" style="ellipse;whiteSpace=wrap;html=1;strokeWidth=3;container=0;" vertex="1" parent="8TrVyVLYIBjpl2dbPp21-23">
          <mxGeometry x="252.6875" y="551.4864864864865" width="120.53571428571428" height="41.62162162162163" as="geometry" />
        </mxCell>
      </root>
    </mxGraphModel>
  </diagram>
</mxfile>
